<svg version="1.1" id="Layer_1" xmlns="http://www.w3.org/2000/svg" xmlns:xlink="http://www.w3.org/1999/xlink" x="0px" y="0px"
	 width="100%" viewBox="0 0 1024 1024" enable-background="new 0 0 1024 1024" xml:space="preserve">
<path fill="#000000" opacity="1.000000" stroke="none" 
	d="
M607.703369,216.208801 
	C631.461853,226.009781 654.861877,235.677612 678.294312,245.266235 
	C681.624329,246.628891 684.332520,248.391403 684.192688,252.370636 
	C684.060547,256.129852 681.257996,257.693695 678.159363,258.876251 
	C676.292480,259.588715 674.465698,260.405670 672.609375,261.146759 
	C660.554077,265.959534 659.543762,267.759125 661.329712,280.662262 
	C661.559998,282.326202 662.426819,283.291412 663.570740,284.338776 
	C669.851685,290.089569 670.425232,297.125427 664.735413,303.077209 
	C662.642395,305.266663 663.064148,307.045807 663.869873,309.342194 
	C667.988281,321.079712 669.169556,333.346558 670.234924,345.623047 
	C670.446045,348.056122 670.148560,350.541229 667.131348,351.037933 
	C664.469604,351.476105 663.227783,349.717926 662.581055,346.859772 
	C661.263733,352.123627 658.247437,354.129639 653.271973,352.715912 
	C652.794373,352.580231 652.296082,352.467560 651.802673,352.444275 
	C642.444214,352.003082 642.197388,351.988983 642.847717,342.683167 
	C643.660461,331.053619 645.018921,319.458618 649.331970,308.487396 
	C650.286438,306.059387 649.760132,304.709503 647.950134,302.915283 
	C642.907959,297.916931 642.759888,291.553589 647.161011,286.315979 
	C651.557617,281.083771 652.159851,277.972076 650.122009,270.953705 
	C648.550415,270.099762 647.211426,271.098145 645.885986,271.631866 
	C633.372070,276.671051 620.913208,281.848846 608.358826,286.784088 
	C605.282837,287.993225 603.910706,289.625610 603.985352,293.031067 
	C604.229919,304.192902 604.249207,315.360291 604.286438,326.525757 
	C604.299438,330.433105 606.230652,333.502625 608.257629,336.580872 
	C620.868225,355.731903 628.040588,376.781982 630.394409,399.554413 
	C630.703735,402.547272 629.852173,404.524139 627.546936,406.436829 
	C621.842834,411.169586 616.353943,416.161804 610.106873,421.638733 
	C609.681641,415.122437 609.310852,409.562592 608.957458,404.001709 
	C608.200684,392.092682 604.713013,380.881989 601.084839,369.573334 
	C596.938416,356.649475 588.453491,349.073334 576.172485,344.449921 
	C558.606995,337.837158 540.665649,333.449036 521.871582,332.102570 
	C489.096069,329.754425 457.938507,335.683868 428.050385,349.017303 
	C423.355957,351.111511 421.838196,350.283813 421.804718,345.200623 
	C421.699341,329.202301 421.676910,313.202362 421.786774,297.204224 
	C421.830383,290.852661 425.661194,286.783325 430.905945,283.867340 
	C443.186127,277.039825 456.594604,273.792297 470.332825,271.755676 
	C506.154694,266.445374 541.351624,269.974976 576.397949,279.079315 
	C575.263428,278.435394 574.149597,277.750916 572.988586,277.158783 
	C571.802246,276.553741 570.596313,275.969421 569.353455,275.495361 
	C528.050659,259.740997 485.948669,256.116913 442.893829,267.240631 
	C436.404114,268.917358 430.321655,271.624451 424.496552,274.913788 
	C420.678009,277.070099 417.308136,279.798676 414.776886,283.394440 
	C410.679688,289.214600 410.734924,289.254913 404.048035,286.277496 
	C383.959473,277.332825 363.883820,268.358917 343.770386,259.470490 
	C340.516418,258.032501 337.763550,256.262604 337.756592,252.348358 
	C337.749420,248.330032 340.702118,246.765930 343.975952,245.477386 
	C392.485992,226.384491 440.982971,207.258499 489.482269,188.138306 
	C494.904846,186.000504 500.398804,184.021988 505.721191,181.657791 
	C511.257385,179.198639 516.480347,179.296844 522.113586,181.600250 
	C550.480225,193.199112 578.932861,204.587830 607.703369,216.208801 
z"/>
<path fill="#000000" opacity="1.000000" stroke="none" 
	d="
M195.235214,629.733337 
	C207.277573,633.776367 218.992371,637.599548 230.631516,641.640564 
	C240.435654,645.044556 249.891449,649.273132 257.802948,656.167358 
	C283.925140,678.930847 278.452698,722.912598 247.381744,740.349060 
	C233.919876,747.903625 219.265427,750.527954 204.050507,750.137817 
	C179.521957,749.508911 157.176010,742.715759 138.256317,726.323242 
	C134.763702,723.297058 134.106049,721.010376 137.168991,717.266174 
	C142.016663,711.340210 146.490845,705.099915 150.951248,698.869690 
	C153.163391,695.779724 155.111862,695.180420 158.185593,697.913452 
	C170.680771,709.023682 185.384796,715.112366 202.027893,716.455627 
	C210.290237,717.122437 218.359528,716.172546 225.871933,712.442993 
	C232.479034,709.162781 236.339401,703.920166 236.763824,696.338135 
	C237.199875,688.548706 233.240097,683.352539 226.938553,679.666321 
	C217.344269,674.053955 206.561600,671.539673 196.081467,668.284729 
	C186.524826,665.316589 177.012192,662.236206 168.175247,657.475403 
	C150.481445,647.943237 140.815613,632.943665 141.072037,612.953552 
	C141.341751,591.928284 150.902847,575.613953 169.884155,565.489868 
	C198.829346,550.051331 241.154602,555.416931 266.870544,577.931458 
	C275.928101,585.861511 276.001770,584.190613 267.555420,593.248169 
	C263.693481,597.389648 259.695312,601.431152 256.151703,605.834106 
	C253.064468,609.670044 250.690155,610.004517 246.888718,606.479492 
	C233.815430,594.356873 218.221588,589.351013 200.464371,591.279968 
	C194.714050,591.904724 189.395096,593.749573 184.980530,597.597534 
	C175.304626,606.031616 176.371475,619.083008 187.297867,625.786133 
	C189.700760,627.260193 192.342896,628.344238 195.235214,629.733337 
z"/>
<path fill="#000000" opacity="1.000000" stroke="none" 
	d="
M564.912292,618.000000 
	C564.928162,600.839783 565.077820,584.177856 564.874329,567.520325 
	C564.816040,562.750305 566.508362,560.939636 571.218445,560.951843 
	C610.369690,561.053528 649.521240,561.076355 688.672546,561.015625 
	C693.081482,561.008789 694.461670,562.869812 694.339172,567.077454 
	C694.116333,574.734497 694.085022,582.410522 694.368896,590.063904 
	C694.543030,594.759094 692.593201,596.109436 688.168579,596.087097 
	C662.012634,595.954895 635.855835,596.022278 609.699280,595.999268 
	C602.193420,595.992676 602.181335,595.957397 602.174805,603.352539 
	C602.165771,613.681885 602.326355,624.014343 602.106445,634.338928 
	C602.018311,638.478027 603.437134,639.782410 607.566406,639.752747 
	C630.723022,639.586365 653.883057,639.812073 677.037781,639.544373 
	C682.212585,639.484497 683.715942,641.174500 683.466309,646.130066 
	C683.106384,653.276062 683.092712,660.467163 683.455200,667.612366 
	C683.701233,672.462646 681.988159,674.029419 677.214661,673.958862 
	C655.063965,673.631592 632.909607,673.549072 610.756348,673.410156 
	C602.206177,673.356567 602.195679,673.394348 602.193115,681.933289 
	C602.187439,701.092590 602.211182,720.251831 602.183594,739.411133 
	C602.174500,745.729370 601.638916,746.228699 595.322449,746.245300 
	C587.658752,746.265503 579.994995,746.253296 572.331238,746.239807 
	C565.297424,746.227417 564.927429,745.861206 564.926270,738.954346 
	C564.919556,698.802917 564.916260,658.651428 564.912292,618.000000 
z"/>
<path fill="#000000" opacity="1.000000" stroke="none" 
	d="
M402.694550,670.000000 
	C402.694977,653.669556 402.822632,637.837402 402.617828,622.009644 
	C402.558136,617.395508 403.775452,615.350098 408.781158,615.586243 
	C416.262695,615.939087 423.783752,615.891052 431.268951,615.570068 
	C435.925568,615.370422 437.322296,617.095642 437.287292,621.628296 
	C437.116211,643.789612 437.200073,665.952942 437.226715,688.115601 
	C437.230499,691.277832 437.083344,694.491638 437.569794,697.593201 
	C440.213501,714.449646 455.577209,722.930359 472.049286,716.762207 
	C483.841278,712.346558 490.618622,702.670227 490.654633,689.870361 
	C490.717957,667.374573 490.666962,644.878540 490.686829,622.382568 
	C490.692719,615.719849 490.771637,615.673523 497.367188,615.669800 
	C504.365906,615.665833 511.364624,615.665161 518.363342,615.667358 
	C525.006409,615.669434 525.144104,615.780212 525.145264,622.315063 
	C525.151306,655.642334 525.140442,688.969666 525.139832,722.296936 
	C525.139709,728.295837 525.021729,734.299255 525.217834,740.292114 
	C525.354431,744.465698 523.942688,746.409973 519.476135,746.273926 
	C511.817963,746.040649 504.143707,746.063904 496.483826,746.266418 
	C492.244598,746.378540 490.793121,744.494995 491.046326,740.545288 
	C491.192719,738.261475 491.072876,735.960632 491.072876,733.704956 
	C488.816986,733.399475 488.209839,734.837952 487.321381,735.687195 
	C470.943695,751.342407 451.724945,752.965027 431.625092,745.572144 
	C411.831116,738.291687 404.250092,721.755615 402.920532,701.985474 
	C402.217621,691.532532 402.730865,680.997803 402.694550,670.000000 
z"/>
<path fill="#000000" opacity="1.000000" stroke="none" 
	d="
M326.038391,418.715759 
	C318.603973,381.974030 324.766510,348.153046 344.893646,316.967529 
	C351.814484,306.244202 360.526428,297.087585 370.000702,288.599945 
	C372.655487,286.221619 375.104401,285.554901 378.516052,287.313934 
	C384.045319,290.164917 390.072113,292.058350 395.143738,295.265320 
	C394.788605,298.219818 392.873657,298.896790 391.455811,299.914032 
	C362.972046,320.349762 347.757202,348.332672 345.255219,383.016693 
	C342.749725,417.749115 355.167236,447.346588 378.618652,472.491058 
	C382.618103,476.779205 383.882904,480.616913 382.530365,486.294830 
	C379.765839,497.899933 377.683197,509.667419 375.327057,521.331665 
	C377.433929,522.440369 378.844147,521.209412 380.293549,520.622131 
	C391.872101,515.930176 403.483826,511.312195 414.960968,506.381927 
	C419.287598,504.523315 423.124786,504.615997 427.396545,506.504944 
	C443.483246,513.618530 460.520111,516.629089 477.976715,516.539490 
	C489.790527,516.478821 501.574188,514.929443 512.847168,511.017029 
	C516.102600,509.887207 518.422241,510.216827 520.779175,512.875916 
	C524.483398,517.055176 528.521729,520.938293 532.744385,525.281860 
	C525.908203,529.936646 518.825806,531.376160 511.993591,533.194763 
	C482.931030,540.930725 454.275970,539.057007 426.124847,528.770386 
	C422.972351,527.618408 420.325439,527.453369 417.091248,528.806763 
	C396.195557,537.550659 375.203308,546.064514 354.218292,554.593628 
	C352.185425,555.419861 350.023621,557.396240 347.778137,555.300537 
	C345.821411,553.474243 347.194824,551.231689 347.601807,549.177734 
	C351.577789,529.114441 355.548737,509.050110 359.579773,488.997864 
	C360.167786,486.072693 359.926117,483.760223 357.753723,481.266571 
	C342.032623,463.220581 331.381226,442.535522 326.038391,418.715759 
z"/>
<path fill="#000000" opacity="1.000000" stroke="none" 
	d="
M775.828857,730.864380 
	C787.344238,714.501831 798.558777,698.363525 810.046997,682.422485 
	C812.427673,679.119019 812.255066,676.908630 809.926086,673.704590 
	C797.688721,656.869385 785.677185,639.869812 773.634216,622.893921 
	C772.424500,621.188782 770.193604,619.452881 771.194946,617.225647 
	C772.398010,614.549805 775.334351,615.775940 777.505737,615.744751 
	C786.331604,615.618103 795.164490,615.850342 803.986145,615.620483 
	C807.747192,615.522522 810.143127,616.759766 812.187012,619.941650 
	C818.396240,629.607849 824.865784,639.107239 831.269714,648.647583 
	C832.273315,650.142761 832.982361,651.902405 834.897095,653.044922 
	C837.106628,651.510620 838.109619,648.962646 839.532532,646.810608 
	C845.502319,637.781982 851.372131,628.687134 857.257019,619.602539 
	C858.768311,617.269592 860.437317,615.585510 863.620911,615.634033 
	C873.778748,615.788818 883.940430,615.677185 894.100464,615.716003 
	C895.230408,615.720337 896.359192,616.030823 897.386841,616.184143 
	C898.731018,618.768494 896.752319,620.140564 895.708130,621.653137 
	C883.695435,639.054932 871.699585,656.469849 859.476562,673.723572 
	C857.132141,677.032898 857.265503,679.294373 859.614502,682.516113 
	C873.545166,701.622070 887.260864,720.884766 901.036560,740.103638 
	C902.067383,741.541748 903.979492,742.834961 903.094849,744.856384 
	C902.161560,746.988953 899.895691,746.215393 898.176392,746.226807 
	C888.516357,746.290955 878.853027,746.111694 869.196472,746.303833 
	C865.446411,746.378418 863.055481,745.083862 860.968872,741.953308 
	C853.119629,730.177063 845.029602,718.561340 837.027893,706.886719 
	C836.293823,705.815735 835.879578,704.446228 834.096436,703.947083 
	C831.572937,706.200500 830.018555,709.366455 828.108765,712.217957 
	C821.622864,721.902344 815.172119,731.613098 808.903320,741.438416 
	C806.713196,744.871094 804.131897,746.461792 799.925720,746.333618 
	C790.606689,746.049683 781.273621,746.241089 771.946472,746.196289 
	C770.319092,746.188416 768.389038,746.474731 767.560730,744.588562 
	C766.844727,742.958130 768.230957,741.775452 769.042603,740.576660 
	C771.189636,737.405396 773.425049,734.293884 775.828857,730.864380 
z"/>
<path fill="#000000" opacity="1.000000" stroke="none" 
	d="
M338.395996,588.078064 
	C338.399109,595.900330 338.575287,603.239197 338.334564,610.564270 
	C338.202881,614.571472 339.768311,615.781067 343.601044,615.716797 
	C353.931030,615.543457 364.267792,615.775635 374.598145,615.612610 
	C378.269287,615.554626 379.625763,616.782288 379.492096,620.530334 
	C379.248779,627.354614 379.246155,634.200378 379.495972,641.024292 
	C379.637177,644.880310 377.926849,646.004456 374.461212,645.976135 
	C364.795471,645.897156 355.128754,645.939880 345.462433,645.926758 
	C338.433899,645.917236 338.402771,645.923584 338.393707,652.735840 
	C338.374664,667.068726 338.604401,681.406189 338.319183,695.733521 
	C337.860748,718.760254 354.135864,721.808960 368.877075,716.315796 
	C375.244324,713.943115 375.218506,713.832458 377.439301,720.179016 
	C379.418793,725.835938 381.293060,731.530823 383.354767,737.157288 
	C384.315216,739.778442 383.866791,741.617737 381.334259,742.975403 
	C363.942780,752.298706 331.516602,753.013000 315.995026,735.839600 
	C306.778656,725.642456 304.165833,713.302795 303.941711,700.244873 
	C303.667114,684.250061 303.731049,668.244873 303.961517,652.248718 
	C304.029144,647.554565 302.673096,645.414124 297.771820,645.847900 
	C294.628876,646.125977 291.442261,645.875610 288.277191,645.947449 
	C285.001495,646.021790 283.404053,644.767395 283.504852,641.219727 
	C283.698853,634.391663 283.761383,627.549805 283.547485,620.724060 
	C283.421021,616.686768 285.116852,615.410645 288.899597,615.639160 
	C292.386597,615.849854 295.901001,615.569641 299.395233,615.709106 
	C302.575317,615.835938 303.927795,614.588806 303.849854,611.328674 
	C303.710480,605.499023 304.109741,599.645264 303.740570,593.836121 
	C303.449646,589.257996 305.365356,587.256958 309.562744,586.123962 
	C316.954926,584.128723 324.240845,581.735596 331.555695,579.459106 
	C337.804840,577.514221 338.370117,577.912842 338.400208,584.588440 
	C338.404724,585.588562 338.397156,586.588745 338.395996,588.078064 
z"/>
<path fill="#000000" opacity="1.000000" stroke="none" 
	d="
M689.688843,376.526855 
	C698.018250,373.706085 705.914673,370.706207 714.405884,370.536987 
	C714.922119,372.141052 713.967834,372.502289 713.332886,372.859833 
	C686.997620,387.689545 666.594971,409.019745 647.933655,432.304352 
	C622.585083,463.933044 600.397400,497.817902 577.496094,531.180542 
	C569.117981,543.385803 563.616455,545.837830 552.147522,533.307678 
	C537.418152,517.215393 522.112366,501.628113 505.643219,487.259949 
	C502.460724,484.483459 502.067719,481.829956 505.367462,478.942474 
	C505.743469,478.613464 506.089050,478.249420 506.468201,477.924316 
	C525.813599,461.338135 530.700867,463.706879 546.206970,477.129547 
	C551.219238,481.468262 556.188416,485.856720 561.522766,490.524719 
	C566.775330,483.831390 571.718811,477.384369 576.816223,471.061462 
	C601.606995,440.310516 628.654236,411.935974 662.187134,390.441895 
	C670.767517,384.942017 679.868896,380.448700 689.688843,376.526855 
z"/>
<path fill="#000000" opacity="1.000000" stroke="none" 
	d="
M715.309692,719.204773 
	C715.263977,698.280945 715.167297,677.794617 715.107178,657.308167 
	C715.072449,645.477783 715.247131,633.644348 715.021118,621.818176 
	C714.928833,616.993347 716.704651,615.360046 721.484680,615.585999 
	C728.633728,615.923767 735.810425,615.669128 742.975403,615.679749 
	C750.056030,615.690247 750.112122,615.705261 750.117859,623.024963 
	C750.139221,650.185120 750.125732,677.345337 750.125671,704.505493 
	C750.125671,716.502625 750.025208,728.501160 750.180969,740.496216 
	C750.236755,744.790588 748.615906,746.469910 744.285522,746.340149 
	C736.460571,746.105652 728.621460,746.104614 720.794250,746.276855 
	C716.619934,746.368652 715.310913,744.737427 715.450195,740.621765 
	C715.686523,733.638611 715.362488,726.636414 715.309692,719.204773 
z"/>
<path fill="#000000" opacity="1.000000" stroke="none" 
	d="
M713.792419,572.278076 
	C717.482117,563.878052 723.604919,559.103027 732.368774,558.896118 
	C740.379150,558.707092 746.835327,562.346558 750.905762,569.438904 
	C755.510620,577.462280 754.014282,587.314392 747.445740,593.723450 
	C740.835144,600.173767 730.302551,601.337585 722.083069,596.526001 
	C714.135193,591.873352 710.864990,582.615417 713.792419,572.278076 
z"/>
<path fill="#000000" opacity="1.000000" stroke="none" 
	d="
M524.318054,424.408020 
	C518.408508,428.646515 512.532898,429.031921 506.825806,425.160858 
	C502.009369,421.893982 500.104248,416.973938 500.928192,411.222961 
	C501.781464,405.266724 506.196045,400.943481 512.459717,399.529053 
	C517.831543,398.316040 524.279114,401.283417 527.362671,406.387939 
	C530.783447,412.050598 529.862366,417.978638 524.318054,424.408020 
z"/>
<path fill="#000000" opacity="1.000000" stroke="none" 
	d="
M398.983582,412.297272 
	C401.658234,403.130066 407.395905,398.454071 414.486877,399.295227 
	C421.686127,400.149231 427.011932,405.531281 427.340576,412.284698 
	C427.705811,419.791199 423.614288,425.673859 416.931854,427.249969 
	C409.482483,429.006897 402.930084,425.636230 400.007416,418.528168 
	C399.241669,416.665863 398.756226,414.742493 398.983582,412.297272 
z"/>
<path fill="#000000" opacity="1.000000" stroke="none" 
	d="
M474.421631,423.363586 
	C468.604919,428.088806 462.199371,428.934814 457.072662,425.897949 
	C452.014099,422.901459 449.250214,417.041626 450.270386,411.476166 
	C451.500702,404.764343 455.361938,400.812561 461.976440,399.495636 
	C466.985687,398.498322 472.765961,401.026550 475.804352,405.543884 
	C479.506714,411.048340 479.142365,416.732178 474.421631,423.363586 
z"/>
<path fill="#000000" opacity="1.000000" stroke="none" 
	d="
M449.344604,813.160034 
	C441.612610,808.081970 439.385223,801.170959 442.772949,793.744507 
	C445.454651,787.865784 452.598724,784.581421 459.063416,786.255310 
	C467.187805,788.358948 471.667450,795.944275 469.449036,803.841187 
	C466.980377,812.628967 459.527954,816.209106 449.344604,813.160034 
M454.044800,791.674072 
	C452.865509,792.258606 451.517273,792.642151 450.538330,793.465027 
	C447.495911,796.022827 447.041046,802.702209 449.551788,805.835876 
	C452.051849,808.956238 456.460815,809.583801 459.872070,807.304932 
	C463.652771,804.779297 464.894012,799.157410 462.405731,795.348328 
	C460.632263,792.633545 458.017334,791.392578 454.044800,791.674072 
z"/>
<path fill="#000000" opacity="1.000000" stroke="none" 
	d="
M613.555298,804.991516 
	C609.487244,812.817078 603.044678,815.957031 595.877319,813.926758 
	C589.239380,812.046448 585.072021,805.762939 585.759094,798.670349 
	C586.506531,790.954529 593.015869,785.369080 600.757263,785.800964 
	C608.579956,786.237366 614.448059,792.421326 614.318298,800.195923 
	C614.293640,801.668579 613.910950,803.135193 613.555298,804.991516 
M592.448059,797.237366 
	C591.891663,805.291077 595.520996,809.882996 601.450256,808.469788 
	C605.458313,807.514465 607.719055,804.920471 607.797058,800.674622 
	C607.874573,796.455811 606.499451,793.087341 602.030457,791.969055 
	C597.757324,790.899780 594.593872,792.491821 592.448059,797.237366 
z"/>
<path fill="#000000" opacity="1.000000" stroke="none" 
	d="
M657.486694,813.144409 
	C656.130188,805.063782 656.928772,797.270569 656.728638,789.496582 
	C656.668213,787.150269 657.982239,786.240784 660.089722,786.099121 
	C663.913696,785.842224 667.745728,785.820618 671.447998,786.920593 
	C677.174683,788.621948 679.938110,795.465515 676.114136,800.071411 
	C673.327942,803.427246 673.746033,805.639954 676.027222,808.567322 
	C677.007080,809.824707 678.070251,811.201538 677.813660,813.314148 
	C674.430664,815.070740 672.130859,813.939758 670.173645,810.774475 
	C668.694031,808.381714 668.066650,805.045959 664.778931,804.522583 
	C660.474609,806.260254 666.868713,815.665344 657.486694,813.144409 
M666.342102,798.699829 
	C668.951111,798.740479 670.983154,797.910339 671.057922,794.937927 
	C671.102722,793.157715 669.749329,792.348755 668.124756,792.238770 
	C666.380188,792.120667 664.190491,791.530273 663.430847,793.750427 
	C662.740967,795.766663 662.388855,798.120728 666.342102,798.699829 
z"/>
<path fill="#000000" opacity="1.000000" stroke="none" 
	d="
M319.046509,797.525024 
	C319.351288,806.461853 315.237274,812.548035 308.204529,814.101196 
	C301.268524,815.632996 294.495300,812.301331 291.769226,806.016724 
	C288.671021,798.874268 291.637054,790.412842 298.324310,787.316833 
	C306.163330,783.687561 314.459259,786.641235 317.934052,794.320068 
	C318.342621,795.222961 318.619415,796.185547 319.046509,797.525024 
M297.360046,797.216736 
	C296.777954,801.156433 296.703430,804.965698 300.651367,807.404480 
	C304.603607,809.845825 309.467194,808.482788 311.835449,804.358337 
	C313.955048,800.666931 312.666565,794.992554 309.195526,792.731934 
	C305.109924,790.071228 300.677338,791.491028 297.360046,797.216736 
z"/>
<path fill="#000000" opacity="1.000000" stroke="none" 
	d="
M379.458221,803.980774 
	C380.450256,807.454956 383.455750,809.640625 383.811218,813.438354 
	C380.720886,814.616089 378.271210,814.454346 376.530029,811.392578 
	C375.790131,810.091492 375.041199,808.791504 374.217041,807.543457 
	C373.327209,806.196045 372.655792,804.208862 370.617218,804.646301 
	C368.402527,805.121521 369.130493,807.283264 368.897858,808.822632 
	C368.653198,810.441467 368.909515,812.259827 367.493347,813.446716 
	C365.577148,815.052979 362.763184,813.637024 362.708954,810.823059 
	C362.571167,803.671997 362.714294,796.515869 362.703094,789.361816 
	C362.699249,786.917603 364.231842,786.250000 366.249237,786.138794 
	C369.408752,785.964600 372.572815,785.887451 375.693726,786.566711 
	C383.622406,788.292419 386.040192,795.372620 380.864899,801.655334 
	C380.349457,802.281067 379.915619,802.974060 379.458221,803.980774 
M370.649170,791.928223 
	C367.488678,792.385193 368.501495,794.775146 368.615723,796.592102 
	C368.720062,798.251221 370.073517,798.630920 371.518799,798.666138 
	C373.959381,798.725708 376.571014,798.648376 376.717407,795.464966 
	C376.890137,791.710327 373.784454,792.170776 370.649170,791.928223 
z"/>
<path fill="#000000" opacity="1.000000" stroke="none" 
	d="
M885.938477,795.543335 
	C887.089966,797.656982 886.422791,798.766602 884.568176,799.104614 
	C883.435303,799.311035 882.249390,799.266907 881.087341,799.267151 
	C852.475891,799.273560 823.864502,799.272827 795.253052,799.262695 
	C794.092346,799.262268 792.923218,799.225525 791.773376,799.082275 
	C790.694824,798.947937 789.910828,798.316406 789.821228,797.166260 
	C789.708374,795.718750 790.622498,795.066040 791.907471,794.879883 
	C792.725708,794.761292 793.564270,794.747620 794.393738,794.747192 
	C823.670532,794.732056 852.947327,794.718323 882.224121,794.737305 
	C883.364197,794.738037 884.503967,795.063049 885.938477,795.543335 
z"/>
<path fill="#000000" opacity="1.000000" stroke="none" 
	d="
M193.999969,799.252686 
	C177.694229,799.254456 161.888504,799.260010 146.082779,799.250916 
	C144.587936,799.250061 143.086807,799.226318 141.600296,799.087708 
	C140.325211,798.968811 139.355194,798.286804 139.356400,796.888306 
	C139.357651,795.428223 140.431610,794.935547 141.689102,794.839478 
	C142.848083,794.750977 144.015274,794.745422 145.178848,794.745117 
	C173.462784,794.736328 201.746704,794.733093 230.030640,794.729553 
	C230.696121,794.729431 231.364868,794.696716 232.026428,794.749817 
	C233.630325,794.878296 235.798737,794.517578 235.923447,796.808594 
	C236.073196,799.559448 233.677704,799.228760 231.934540,799.234680 
	C219.456482,799.276794 206.978180,799.254272 193.999969,799.252686 
z"/>
<path fill="#000000" opacity="1.000000" stroke="none" 
	d="
M547.860596,791.264404 
	C544.990967,792.614319 542.297241,791.906250 539.667114,792.106873 
	C538.136292,792.223572 536.499878,792.274841 536.403198,794.334290 
	C536.291443,796.717224 538.075745,796.855469 539.805786,796.927002 
	C540.967712,796.975159 542.134399,796.929932 543.294312,797.001526 
	C545.183105,797.118042 547.128174,797.288452 547.030212,799.904602 
	C546.941528,802.272827 545.125000,802.266052 543.429443,802.317078 
	C541.934937,802.362061 540.438721,802.350525 538.943787,802.386108 
	C536.741699,802.438416 536.205383,803.818481 536.228394,805.727844 
	C536.250732,807.579102 537.161560,808.503235 538.963257,808.527893 
	C541.289062,808.559692 543.616028,808.546265 545.941895,808.512329 
	C547.617188,808.487915 548.968750,808.896362 549.072083,810.862122 
	C549.178467,812.885193 548.105591,814.036560 546.116577,814.069824 
	C541.798096,814.142029 537.476990,814.139465 533.158203,814.079590 
	C530.983704,814.049500 529.802734,812.879944 529.804321,810.630554 
	C529.809326,803.650940 529.841003,796.671021 529.786987,789.691833 
	C529.766602,787.062683 531.234436,786.169128 533.535522,786.135986 
	C537.356628,786.080933 541.180786,785.993591 544.999512,786.088623 
	C548.267639,786.169922 549.594849,787.733154 547.860596,791.264404 
z"/>
<path fill="#000000" opacity="1.000000" stroke="none" 
	d="
M640.176147,795.509644 
	C640.184021,793.086304 640.137451,791.088135 640.265015,789.101196 
	C640.392578,787.114075 641.550598,786.100769 643.569702,786.239075 
	C645.354858,786.361267 646.274536,787.367981 646.265930,789.158691 
	C646.239624,794.641846 646.525635,800.152893 646.061523,805.599609 
	C645.638977,810.557739 641.669312,813.810120 636.606628,814.301697 
	C630.396484,814.904663 625.820068,812.583191 624.123474,807.510132 
	C622.071838,801.375122 623.042603,794.997375 623.231567,788.709534 
	C623.284851,786.935913 624.563599,786.126587 626.309326,786.164124 
	C628.374329,786.208557 629.267151,787.358948 629.269287,789.350159 
	C629.273499,793.173828 629.310913,796.997498 629.306763,800.821167 
	C629.302673,804.568054 629.903442,808.225586 634.465637,808.517456 
	C639.198425,808.820312 639.975098,805.110413 640.208313,801.408630 
	C640.322632,799.593140 640.208679,797.763184 640.176147,795.509644 
z"/>
<path fill="#000000" opacity="1.000000" stroke="none" 
	d="
M763.056274,806.976135 
	C764.315979,809.107300 766.050964,810.588501 766.307800,813.237915 
	C763.547974,814.805908 761.098083,814.660645 759.041138,812.006836 
	C757.450012,809.954102 756.577576,807.335754 754.341980,805.690063 
	C750.139893,808.042236 750.012573,816.659973 742.105896,813.158325 
	C743.017090,809.457825 745.534546,806.914612 747.530029,804.210571 
	C749.894104,801.007019 749.879028,798.430542 747.563599,795.250122 
	C745.761414,792.774902 743.478760,790.463989 742.706909,787.310425 
	C747.438110,785.431335 747.438110,785.431335 754.196594,793.845947 
	C758.018982,791.700989 758.515137,783.521790 765.707825,786.929688 
	C765.828613,789.564514 764.075928,791.060181 762.880676,792.755005 
	C757.944641,799.754272 757.909485,799.729492 763.056274,806.976135 
z"/>
<path fill="#000000" opacity="1.000000" stroke="none" 
	d="
M328.686584,803.647339 
	C328.685699,798.688049 328.700806,794.189331 328.694275,789.690613 
	C328.691589,787.831055 329.158844,786.345276 331.368286,786.252991 
	C333.894897,786.147461 334.377533,787.781982 334.372589,789.843933 
	C334.362976,793.842773 334.348999,797.842285 334.402649,801.840576 
	C334.453247,805.611450 335.834564,808.590698 340.083618,808.546692 
	C344.324158,808.502869 345.632904,805.500244 345.652222,801.732178 
	C345.672699,797.733337 345.674316,793.734375 345.661285,789.735535 
	C345.655243,787.885620 346.092377,786.382141 348.292664,786.245422 
	C350.574066,786.103699 351.791809,787.301636 351.759308,789.505920 
	C351.678406,794.987793 351.884979,800.520081 351.200531,805.934082 
	C350.489838,811.555786 345.801910,814.520630 339.409668,814.317078 
	C333.125519,814.117065 329.820190,810.967957 328.686584,803.647339 
z"/>
<path fill="#000000" opacity="1.000000" stroke="none" 
	d="
M509.175568,791.460510 
	C505.001892,792.317688 502.536224,794.441711 502.154266,798.496826 
	C501.828430,801.956482 502.254456,805.200989 505.431580,807.341125 
	C508.403809,809.343384 511.459473,809.075256 514.293274,807.114441 
	C516.385254,805.666870 518.368896,805.189209 519.818176,807.581604 
	C521.157410,809.792175 518.978638,810.894409 517.647095,811.937073 
	C512.459167,815.999329 503.504028,814.967224 499.021637,809.911743 
	C494.132355,804.397278 494.178040,795.511841 499.122406,790.333374 
	C504.108398,785.111267 513.020264,784.312134 518.222046,788.633667 
	C519.543457,789.731506 520.913940,790.895142 519.326721,792.736816 
	C518.143433,794.109680 516.794495,794.852112 515.021484,793.507507 
	C513.417725,792.291382 511.664856,791.340393 509.175568,791.460510 
z"/>
<path fill="#000000" opacity="1.000000" stroke="none" 
	d="
M427.709534,805.597534 
	C425.690826,808.775085 426.650818,813.894897 421.573120,814.072632 
	C416.073700,814.265076 416.564209,809.014038 415.153778,805.869324 
	C412.459625,799.862366 410.375671,793.581665 407.965149,787.221191 
	C411.954895,785.280457 414.177948,786.032593 415.598297,789.929016 
	C417.281342,794.546082 418.598816,799.352722 421.376465,803.970398 
	C424.113739,799.397949 425.237610,794.695679 426.918640,790.220459 
	C428.527710,785.936768 429.270142,785.625610 434.676514,787.229553 
	C432.397491,793.255493 430.130737,799.249084 427.709534,805.597534 
z"/>
<path fill="#000000" opacity="1.000000" stroke="none" 
	d="
M710.439148,797.664551 
	C712.028870,797.696106 713.191345,797.686279 714.350342,797.744080 
	C716.035706,797.828125 717.219360,798.499451 717.250854,800.408875 
	C717.287292,802.621582 715.915710,803.221802 714.026184,803.244263 
	C713.196777,803.254150 712.362976,803.346375 711.539062,803.288391 
	C708.421204,803.068726 706.878784,804.386047 707.013184,807.613586 
	C707.067932,808.928406 706.912476,810.265991 706.719604,811.573547 
	C706.460754,813.327148 705.356262,814.126587 703.582703,814.030884 
	C701.811523,813.935303 700.757446,813.044373 700.750854,811.252930 
	C700.723511,803.788330 700.733643,796.323547 700.769958,788.858948 
	C700.779053,786.991333 702.070129,786.176453 703.696899,786.130432 
	C707.839233,786.013000 711.987183,785.985229 716.130432,786.058899 
	C717.971619,786.091553 719.273132,786.925049 719.235962,789.104614 
	C719.199646,791.240234 718.001648,792.040771 716.088806,792.105042 
	C714.265686,792.166260 712.439758,792.143250 710.616150,792.193054 
	C709.058960,792.235474 707.557495,792.430603 707.302734,794.413879 
	C707.041199,796.450562 707.888916,797.592346 710.439148,797.664551 
z"/>
<path fill="#000000" opacity="1.000000" stroke="none" 
	d="
M267.852661,789.052795 
	C269.617493,791.451965 270.272003,794.190491 272.534027,795.794556 
	C276.705597,793.183594 276.003510,784.417969 284.072632,786.633362 
	C284.581451,789.813904 282.354828,791.490906 281.118896,793.497742 
	C277.791046,798.901245 274.228363,804.130981 275.289856,811.013367 
	C275.547668,812.685059 274.600037,813.905884 272.705597,813.954895 
	C270.957031,814.000183 269.490631,813.169189 269.742065,811.395142 
	C271.061707,802.084290 264.791504,795.939758 260.641907,788.899292 
	C260.398834,788.486816 260.333405,787.969666 260.112671,787.271423 
	C263.141571,785.367859 265.642395,785.596252 267.852661,789.052795 
z"/>
<path fill="#000000" opacity="1.000000" stroke="none" 
	d="
M727.707397,797.033081 
	C727.716919,794.207153 727.750610,791.874390 727.728271,789.542175 
	C727.709717,787.603271 728.411560,786.272583 730.526428,786.192017 
	C732.436890,786.119324 733.941467,786.934937 733.966125,788.971252 
	C734.056702,796.463989 734.043335,803.959106 733.953491,811.451965 
	C733.932251,813.225647 732.664917,814.050842 730.908386,814.044434 
	C728.900696,814.037109 727.769104,813.064697 727.751526,811.021423 
	C727.712891,806.523315 727.719299,802.024841 727.707397,797.033081 
z"/>
<path fill="#000000" opacity="1.000000" stroke="none" 
	d="
M485.490417,789.649963 
	C485.617706,796.652893 485.790741,803.270081 485.860809,809.888428 
	C485.882843,811.967712 485.535461,814.020325 482.731415,814.004028 
	C479.896454,813.987549 479.727631,811.951416 479.725952,809.845703 
	C479.720673,803.213562 479.719635,796.581360 479.719666,789.949219 
	C479.719666,788.206665 479.882721,786.518250 482.097015,786.242981 
	C484.318176,785.966919 485.640564,786.821106 485.490417,789.649963 
z"/>
<path fill="#000000" opacity="1.000000" stroke="none" 
	d="
M563.474365,814.459412 
	C562.192688,816.857300 561.690491,819.748413 557.946045,818.705444 
	C557.375305,816.036865 558.520020,813.356506 557.946960,810.604980 
	C557.523987,808.573792 559.335083,807.437805 561.504272,807.537781 
	C563.550964,807.632141 564.514404,808.808533 564.374939,810.764954 
	C564.294556,811.893311 563.881897,812.997986 563.474365,814.459412 
z"/>
</svg>